<?xml version="1.0" encoding="utf-8"?>
<!-- Generator: Adobe Illustrator 24.1.1, SVG Export Plug-In . SVG Version: 6.00 Build 0)  -->
<svg version="1.1" baseProfile="tiny" id="Capa_1" xmlns="http://www.w3.org/2000/svg" xmlns:xlink="http://www.w3.org/1999/xlink"
	 x="0px" y="0px" viewBox="0 0 400 180" xml:space="preserve">
<rect x="37.5" y="103.3" fill="#D86868" width="26.3" height="26.3"/>
<path fill="#0E155B" d="M123.8,29c-7.9-7.7-18.8-11.5-32.7-11.5H69.7h-5.9H37.5v23h26.3h5.9h16.6c7.3,0,12.8,1.9,16.4,5.7
	c3.7,3.8,5.5,8.3,5.5,13.4c0,5.9-1.9,10.9-5.6,14.9c-3.7,4-9.3,6.1-16.7,6.1H63.8v22.7h27c9.3,0,17.3-1.8,24.1-5.5
	c6.8-3.6,12-8.7,15.6-15.2c3.6-6.5,5.4-13.9,5.4-22.4C135.7,47.1,131.8,36.7,123.8,29"/>
<path fill="#0E155B" d="M236.9,81.5c3.9-6.3,5.9-13.9,5.9-22.8c0-13.3-4.2-23.5-12.5-30.6c-8.3-7.1-20.7-10.6-37.1-10.6h-51.5v112.1
	h26.3V100h25.6l13.1,29.5h29l-15.9-34C227.3,92.5,233,87.8,236.9,81.5 M209.8,72.1c-3.6,3.4-9.1,5.1-16.5,5.1h-25.2V40.4h25.2
	c7.4,0,12.9,1.7,16.5,5.1c3.6,3.4,5.5,7.9,5.5,13.4C215.2,64.3,213.4,68.7,209.8,72.1"/>
<path fill="#0E155B" d="M355.2,45.2c-4.9-8.4-11.6-15-20.3-19.6c-8.7-4.7-18.4-7-29.3-7c-10.9,0-20.6,2.4-29.2,7.1
	c-8.6,4.7-15.3,11.3-20.2,19.7c-4.9,8.4-7.3,18-7.3,28.8c0,10.8,2.4,20.5,7.3,28.9c2.2,3.8,4.7,7.2,7.7,10.2
	c3.6,3.7,7.8,6.9,12.5,9.4c8.6,4.7,18.3,7,29.2,7c10.9,0,20.7-2.3,29.3-7c4.8-2.6,9-5.7,12.6-9.4c3-3,5.5-6.4,7.7-10.2
	c4.9-8.5,7.3-18.1,7.3-29C362.5,63.3,360.1,53.7,355.2,45.2 M276,55.7c3-5.3,7-9.5,12.2-12.5c5.2-3,11-4.5,17.6-4.5
	c6.5,0,12.3,1.5,17.4,4.4c5.2,3,9.2,7.1,12.1,12.5c2.9,5.4,4.4,11.5,4.4,18.4c0,6.9-1.5,13-4.4,18.4c-3,5.4-7,9.6-12.1,12.6
	c-5.1,3-10.9,4.5-17.5,4.5c-6.6,0-12.4-1.5-17.6-4.4c-5.2-3-9.2-7.1-12.1-12.4c-2.9-5.3-4.3-11.5-4.3-18.5
	C271.6,67.2,273.1,61.1,276,55.7"/>
<g>
	<path fill="#0E155B" d="M79.2,162c0,0.1,0,0.1-0.1,0.2c0,0.1-0.1,0.1-0.2,0.1s-0.2,0.1-0.4,0.1c-0.2,0-0.3,0-0.6,0
		c-0.2,0-0.4,0-0.6,0c-0.1,0-0.3-0.1-0.4-0.1c-0.1,0-0.2-0.1-0.2-0.1c0-0.1-0.1-0.1-0.1-0.2l0-8l-8.2,0l0,8c0,0.1,0,0.1-0.1,0.2
		c0,0.1-0.1,0.1-0.2,0.1c-0.1,0-0.2,0.1-0.4,0.1c-0.2,0-0.3,0-0.6,0c-0.2,0-0.4,0-0.6,0c-0.2,0-0.3-0.1-0.4-0.1
		c-0.1,0-0.2-0.1-0.2-0.1c0-0.1-0.1-0.1-0.1-0.2l-0.1-17.3c0-0.1,0-0.1,0.1-0.2c0-0.1,0.1-0.1,0.2-0.1c0.1,0,0.2-0.1,0.4-0.1
		c0.2,0,0.3,0,0.6,0c0.2,0,0.4,0,0.6,0c0.2,0,0.3,0,0.4,0.1c0.1,0,0.2,0.1,0.2,0.1s0.1,0.1,0.1,0.2l0,7.2l8.2,0l0-7.2
		c0-0.1,0-0.1,0.1-0.2c0-0.1,0.1-0.1,0.2-0.1c0.1,0,0.2-0.1,0.4-0.1c0.1,0,0.3,0,0.6,0c0.2,0,0.4,0,0.6,0c0.2,0,0.3,0.1,0.4,0.1
		c0.1,0,0.2,0.1,0.2,0.1c0,0.1,0.1,0.1,0.1,0.2L79.2,162z"/>
	<path fill="#0E155B" d="M164.6,152.9c0,1.5-0.2,2.8-0.5,3.9c-0.3,1.2-0.8,2.2-1.5,3c-0.7,0.8-1.5,1.5-2.6,1.9
		c-1,0.4-2.2,0.7-3.6,0.7c-1.4,0-2.5-0.2-3.5-0.6s-1.8-1-2.5-1.8c-0.6-0.8-1.1-1.7-1.5-2.9c-0.3-1.1-0.5-2.5-0.5-3.9
		c0-1.4,0.2-2.7,0.5-3.9c0.3-1.2,0.9-2.2,1.5-3c0.7-0.8,1.5-1.4,2.6-1.9c1-0.4,2.2-0.7,3.6-0.7c1.3,0,2.5,0.2,3.5,0.6
		c1,0.4,1.8,1,2.5,1.7c0.7,0.8,1.1,1.7,1.5,2.8C164.5,150.1,164.6,151.4,164.6,152.9z M162.1,153c0-1-0.1-2-0.3-2.8
		c-0.2-0.9-0.5-1.6-0.9-2.3c-0.4-0.6-1-1.1-1.7-1.5c-0.7-0.4-1.6-0.5-2.6-0.5c-1,0-1.9,0.2-2.6,0.6c-0.7,0.4-1.3,0.9-1.7,1.6
		c-0.4,0.7-0.8,1.4-0.9,2.3c-0.2,0.9-0.3,1.8-0.3,2.7c0,1.1,0.1,2,0.3,2.9c0.2,0.9,0.5,1.7,0.9,2.3c0.4,0.6,1,1.1,1.7,1.5
		c0.7,0.4,1.6,0.5,2.6,0.5c1,0,1.9-0.2,2.6-0.6c0.7-0.4,1.3-0.9,1.7-1.6c0.4-0.7,0.7-1.4,0.9-2.3C162,154.9,162.1,154,162.1,153z"/>
	<path fill="#0E155B" d="M253.7,161.4c0,0.1,0,0.1-0.1,0.2c0,0.1-0.1,0.1-0.2,0.1c-0.1,0-0.2,0.1-0.4,0.1c-0.1,0-0.3,0-0.6,0
		c-0.2,0-0.4,0-0.6,0c-0.2,0-0.3,0-0.4-0.1c-0.1,0-0.2-0.1-0.2-0.1c0-0.1-0.1-0.1-0.1-0.2l-0.1-15.7h0l-6.3,15.8
		c0,0.1-0.1,0.1-0.1,0.2c-0.1,0-0.1,0.1-0.2,0.1c-0.1,0-0.2,0.1-0.3,0.1c-0.1,0-0.3,0-0.5,0c-0.2,0-0.4,0-0.5,0
		c-0.1,0-0.3,0-0.3-0.1c-0.1,0-0.2-0.1-0.2-0.1c-0.1,0-0.1-0.1-0.1-0.2l-6.1-15.8h0l0.1,15.7c0,0.1,0,0.1-0.1,0.2
		c0,0.1-0.1,0.1-0.2,0.1c-0.1,0-0.2,0.1-0.4,0.1c-0.2,0-0.3,0-0.6,0c-0.2,0-0.4,0-0.6,0c-0.2,0-0.3,0-0.4-0.1
		c-0.1,0-0.2-0.1-0.2-0.1c0-0.1-0.1-0.1-0.1-0.2l-0.1-16.6c0-0.4,0.1-0.7,0.3-0.8c0.2-0.2,0.4-0.3,0.7-0.3l1.5,0
		c0.3,0,0.6,0,0.8,0.1c0.2,0.1,0.4,0.1,0.6,0.3c0.2,0.1,0.3,0.3,0.4,0.5c0.1,0.2,0.2,0.4,0.3,0.7l5.2,13h0.1l5.3-13
		c0.1-0.3,0.2-0.5,0.3-0.7c0.1-0.2,0.3-0.4,0.4-0.5c0.1-0.1,0.3-0.2,0.5-0.3c0.2-0.1,0.4-0.1,0.6-0.1l1.5,0c0.1,0,0.3,0,0.4,0.1
		c0.1,0,0.2,0.1,0.3,0.2c0.1,0.1,0.2,0.2,0.2,0.3c0.1,0.1,0.1,0.3,0.1,0.5L253.7,161.4z"/>
	<path fill="#0E155B" d="M334.1,160.5c0,0.2,0,0.3,0,0.4c0,0.1-0.1,0.2-0.1,0.3c0,0.1-0.1,0.1-0.2,0.2c-0.1,0-0.1,0.1-0.2,0.1
		l-8.7,0c-0.2,0-0.4-0.1-0.6-0.2c-0.2-0.1-0.3-0.4-0.3-0.8l-0.1-16.1c0-0.4,0.1-0.6,0.3-0.8c0.2-0.1,0.4-0.2,0.6-0.2l8.6,0
		c0.1,0,0.1,0,0.2,0.1c0.1,0,0.1,0.1,0.1,0.2c0,0.1,0.1,0.2,0.1,0.3c0,0.1,0,0.3,0,0.5c0,0.2,0,0.3,0,0.4c0,0.1-0.1,0.2-0.1,0.3
		c0,0.1-0.1,0.1-0.1,0.2c-0.1,0-0.1,0.1-0.2,0.1l-7.1,0l0,5.7l6,0c0.1,0,0.1,0,0.2,0.1c0.1,0,0.1,0.1,0.2,0.2c0,0.1,0.1,0.2,0.1,0.3
		c0,0.1,0,0.3,0,0.5c0,0.2,0,0.3,0,0.4s0,0.2-0.1,0.3c0,0.1-0.1,0.1-0.2,0.2c-0.1,0-0.1,0-0.2,0l-6,0l0,6.5l7.1,0
		c0.1,0,0.1,0,0.2,0.1c0.1,0,0.1,0.1,0.2,0.2c0,0.1,0.1,0.2,0.1,0.3C334.1,160.2,334.1,160.3,334.1,160.5z"/>
</g>
</svg>
